<svg xmlns="http://www.w3.org/2000/svg" xmlns:xlink="http://www.w3.org/1999/xlink" contentStyleType="text/css" data-diagram-type="DESCRIPTION" height="654px" preserveAspectRatio="none" style="width:1119px;height:654px;background:#FFFFFF;" version="1.1" viewBox="0 0 1119 654" width="1119px" zoomAndPan="magnify"><title>Pipeline CI/CD y Arquitectura de Microservicios CRUD</title><defs/><g><text fill="#000000" font-family="sans-serif" font-size="14" font-weight="bold" lengthAdjust="spacing" textLength="421.3398" x="341.8711" y="22.9951">Pipeline CI/CD y Arquitectura de Microservicios CRUD</text><!--cluster Jenkins--><g class="cluster" data-entity="Jenkins" data-source-line="4" data-uid="ent0002" id="cluster_Jenkins"><path d="M908.6845,83.3591 C917.0033,71.821 928.3645,71.8729 936.6561,83.3922 C945.2119,70.8091 958.5758,68.7439 967.2983,83.2033 C976.7356,68.2849 985.9989,68.2114 997.3342,81.1573 C1005.1503,70.6784 1015.0441,69.6754 1022.699,81.342 C1033.1593,66.2482 1045.4424,63.48 1055.688,81.5555 C1070.2328,67.774 1081.2668,69.3542 1088,89.0869 C1090.5857,88.6496 1091.6142,90.5673 1090.5773,92.7082 C1101.6645,99.3527 1100.5711,108.5575 1090.2223,114.8584 C1102.3133,121.5737 1103.2715,129.0509 1093.4452,138.7257 C1102.7825,144.2315 1103.5918,152.2562 1094.7698,158.9513 C1106.7075,166.1564 1105.7821,176.9871 1093.826,183.2646 C1108.3067,190.8706 1106.5574,199.5713 1095.4937,208.8428 C1107.9013,214.5619 1107.6623,224.3931 1096.7006,231.3646 C1108.1135,234.4413 1111.171,244.114 1101.1305,251.8337 C1112.082,261.6808 1111.0071,269.8861 1097.622,276.2336 C1110.1735,281.5557 1110.1356,292.5656 1098.7038,299.026 C1111.3695,307.8121 1108.804,317.9717 1096.0861,324.1086 C1106.8651,330.5198 1105.0456,339.0941 1095.153,344.5622 C1105.2244,352.8123 1102.0928,361.8223 1091.693,366.9017 C1102.3316,376.4555 1103.9928,385.8856 1089.4165,393.2618 C1098.509,405.0766 1095.6544,415.507 1081,419.7869 C1082.6341,420.0737 1083.1223,420.8583 1082.3025,422.3784 C1076.6297,432.6371 1069.6754,431.1739 1062.9863,423.4714 C1056.9097,435.8868 1048.7904,435.8018 1040.0078,426.3095 C1035.2505,438.2839 1025.9582,438.6885 1018.7507,428.6786 C1014.8802,440.7083 1003.4762,442.4174 995.0162,434.0081 C987.7318,443.695 979.9252,443.4787 974.8574,431.9063 C965.6853,440.9331 956.7144,439.4732 953.3107,426.3061 C945.6143,438.2049 937.7504,435.8712 930.688,425.6575 C914.4969,436.8172 902.8124,430.526 898,412.7869 C900.9031,411.6737 902.2103,412.5829 902.421,415.6406 C888.8201,408.3211 888.4045,399.2359 901.272,390.6971 C890.0884,386.2639 885.6774,375.6343 896.6789,366.9163 C884.4387,358.8981 885.2199,351.1962 896.992,343.4991 C887.5629,336.6191 885.6054,328.003 896.5687,320.7437 C885.8059,315.0688 886.6645,305.9823 896.3645,300.105 C884.7556,294.2231 884.6558,286.797 893.5771,278.2916 C884.5272,270.6498 882.8344,260.9775 895.1109,254.7236 C884.937,246.5166 883.8025,238.4727 895.8913,230.998 C884.2391,224.7971 884.5064,217.7959 893.124,209.0404 C882.6506,199.4788 884.976,189.4679 897.8923,184.44 C887.456,178.4532 885.1296,167.0986 897.8759,161.0955 C884.2422,153.5677 885.4445,142.938 898.0669,135.6069 C889.7763,129.1671 888.1403,121.3679 898.8859,115.7117 C886.3623,103.6117 888.0334,88.8246 905,82.0869 C906.8303,80.5201 908.0866,81.3569 908.6845,83.3591" fill="none" style="stroke:#181818;stroke-width:1;"/><text fill="#000000" font-family="sans-serif" font-size="14" font-weight="bold" lengthAdjust="spacing" textLength="104.4463" x="940.7769" y="100.082">Jenkins CI/CD</text></g><!--cluster Create Service--><g class="cluster" data-entity="Create Service" data-source-line="9" data-uid="ent0005" id="cluster_Create Service"><path d="M8.5,43.2969 L124.8838,43.2969 A3.75,3.75 0 0 1 127.3838,45.7969 L134.3838,65.5938 L197.5,65.5938 A2.5,2.5 0 0 1 200,68.0938 L200,542.5769 A2.5,2.5 0 0 1 197.5,545.0769 L8.5,545.0769 A2.5,2.5 0 0 1 6,542.5769 L6,45.7969 A2.5,2.5 0 0 1 8.5,43.2969" fill="none" style="stroke:#000000;stroke-width:1.5;"/><line style="stroke:#000000;stroke-width:1.5;" x1="6" x2="134.3838" y1="65.5938" y2="65.5938"/><text fill="#000000" font-family="sans-serif" font-size="14" font-weight="bold" lengthAdjust="spacing" textLength="115.3838" x="10" y="58.292">Create Service</text></g><!--cluster Read Service--><g class="cluster" data-entity="Read Service" data-source-line="16" data-uid="ent0010" id="cluster_Read Service"><path d="M226.5,43.2969 L330.3193,43.2969 A3.75,3.75 0 0 1 332.8193,45.7969 L339.8193,65.5938 L415.5,65.5938 A2.5,2.5 0 0 1 418,68.0938 L418,542.5769 A2.5,2.5 0 0 1 415.5,545.0769 L226.5,545.0769 A2.5,2.5 0 0 1 224,542.5769 L224,45.7969 A2.5,2.5 0 0 1 226.5,43.2969" fill="none" style="stroke:#000000;stroke-width:1.5;"/><line style="stroke:#000000;stroke-width:1.5;" x1="224" x2="339.8193" y1="65.5938" y2="65.5938"/><text fill="#000000" font-family="sans-serif" font-size="14" font-weight="bold" lengthAdjust="spacing" textLength="102.8193" x="228" y="58.292">Read Service</text></g><!--cluster Update Service--><g class="cluster" data-entity="Update Service" data-source-line="23" data-uid="ent0015" id="cluster_Update Service"><path d="M444.5,43.2969 L565.6211,43.2969 A3.75,3.75 0 0 1 568.1211,45.7969 L575.1211,65.5938 L637.5,65.5938 A2.5,2.5 0 0 1 640,68.0938 L640,542.5769 A2.5,2.5 0 0 1 637.5,545.0769 L444.5,545.0769 A2.5,2.5 0 0 1 442,542.5769 L442,45.7969 A2.5,2.5 0 0 1 444.5,43.2969" fill="none" style="stroke:#000000;stroke-width:1.5;"/><line style="stroke:#000000;stroke-width:1.5;" x1="442" x2="575.1211" y1="65.5938" y2="65.5938"/><text fill="#000000" font-family="sans-serif" font-size="14" font-weight="bold" lengthAdjust="spacing" textLength="120.1211" x="446" y="58.292">Update Service</text></g><!--cluster Delete Service--><g class="cluster" data-entity="Delete Service" data-source-line="30" data-uid="ent0020" id="cluster_Delete Service"><path d="M666.5,43.2969 L782.1729,43.2969 A3.75,3.75 0 0 1 784.6729,45.7969 L791.6729,65.5938 L855.5,65.5938 A2.5,2.5 0 0 1 858,68.0938 L858,542.5769 A2.5,2.5 0 0 1 855.5,545.0769 L666.5,545.0769 A2.5,2.5 0 0 1 664,542.5769 L664,45.7969 A2.5,2.5 0 0 1 666.5,43.2969" fill="none" style="stroke:#000000;stroke-width:1.5;"/><line style="stroke:#000000;stroke-width:1.5;" x1="664" x2="791.6729" y1="65.5938" y2="65.5938"/><text fill="#000000" font-family="sans-serif" font-size="14" font-weight="bold" lengthAdjust="spacing" textLength="114.6729" x="668" y="58.292">Delete Service</text></g><!--entity Tests--><g class="entity" data-entity="Tests" data-source-line="5" data-uid="ent0003" id="entity_Tests"><rect fill="#F1F1F1" height="62.5938" rx="2.5" ry="2.5" style="stroke:#181818;stroke-width:0.5;" width="110.1914" x="913.9" y="201.5969"/><rect fill="#F1F1F1" height="10" style="stroke:#181818;stroke-width:0.5;" width="15" x="1004.0914" y="206.5969"/><rect fill="#F1F1F1" height="2" style="stroke:#181818;stroke-width:0.5;" width="4" x="1002.0914" y="208.5969"/><rect fill="#F1F1F1" height="2" style="stroke:#181818;stroke-width:0.5;" width="4" x="1002.0914" y="212.5969"/><text fill="#000000" font-family="sans-serif" font-size="14" lengthAdjust="spacing" textLength="70.1914" x="928.9" y="234.592">Unit Tests</text><text fill="#000000" font-family="sans-serif" font-size="14" lengthAdjust="spacing" textLength="48.7881" x="928.9" y="250.8889">go test</text></g><!--entity Coverage--><g class="entity" data-entity="Coverage" data-source-line="6" data-uid="ent0004" id="entity_Coverage"><rect fill="#F1F1F1" height="62.5938" rx="2.5" ry="2.5" style="stroke:#181818;stroke-width:0.5;" width="158.5625" x="913.72" y="341.1869"/><rect fill="#F1F1F1" height="10" style="stroke:#181818;stroke-width:0.5;" width="15" x="1052.2825" y="346.1869"/><rect fill="#F1F1F1" height="2" style="stroke:#181818;stroke-width:0.5;" width="4" x="1050.2825" y="348.1869"/><rect fill="#F1F1F1" height="2" style="stroke:#181818;stroke-width:0.5;" width="4" x="1050.2825" y="352.1869"/><text fill="#000000" font-family="sans-serif" font-size="14" lengthAdjust="spacing" textLength="118.5625" x="928.72" y="374.182">Coverage Report</text><text fill="#000000" font-family="sans-serif" font-size="14" lengthAdjust="spacing" textLength="101.6367" x="928.72" y="390.4789">go-junit-report</text></g><!--entity CreateCtrl--><g class="entity" data-entity="CreateCtrl" data-source-line="10" data-uid="ent0006" id="entity_CreateCtrl"><rect fill="#F1F1F1" height="46.2969" rx="2.5" ry="2.5" style="stroke:#181818;stroke-width:0.5;" width="155.999" x="25" y="78.2969"/><rect fill="#F1F1F1" height="10" style="stroke:#181818;stroke-width:0.5;" width="15" x="160.999" y="83.2969"/><rect fill="#F1F1F1" height="2" style="stroke:#181818;stroke-width:0.5;" width="4" x="158.999" y="85.2969"/><rect fill="#F1F1F1" height="2" style="stroke:#181818;stroke-width:0.5;" width="4" x="158.999" y="89.2969"/><text fill="#000000" font-family="sans-serif" font-size="14" lengthAdjust="spacing" textLength="115.999" x="40" y="111.292">CreateController</text></g><!--entity CreateSvc--><g class="entity" data-entity="CreateSvc" data-source-line="11" data-uid="ent0007" id="entity_CreateSvc"><rect fill="#F1F1F1" height="46.2969" rx="2.5" ry="2.5" style="stroke:#181818;stroke-width:0.5;" width="138.5674" x="33.72" y="209.7469"/><rect fill="#F1F1F1" height="10" style="stroke:#181818;stroke-width:0.5;" width="15" x="152.2874" y="214.7469"/><rect fill="#F1F1F1" height="2" style="stroke:#181818;stroke-width:0.5;" width="4" x="150.2874" y="216.7469"/><rect fill="#F1F1F1" height="2" style="stroke:#181818;stroke-width:0.5;" width="4" x="150.2874" y="220.7469"/><text fill="#000000" font-family="sans-serif" font-size="14" lengthAdjust="spacing" textLength="98.5674" x="48.72" y="242.742">CreateService</text></g><!--entity CreateRepo--><g class="entity" data-entity="CreateRepo" data-source-line="12" data-uid="ent0008" id="entity_CreateRepo"><rect fill="#F1F1F1" height="46.2969" rx="2.5" ry="2.5" style="stroke:#181818;stroke-width:0.5;" width="161.8984" x="22.05" y="349.3369"/><rect fill="#F1F1F1" height="10" style="stroke:#181818;stroke-width:0.5;" width="15" x="163.9484" y="354.3369"/><rect fill="#F1F1F1" height="2" style="stroke:#181818;stroke-width:0.5;" width="4" x="161.9484" y="356.3369"/><rect fill="#F1F1F1" height="2" style="stroke:#181818;stroke-width:0.5;" width="4" x="161.9484" y="360.3369"/><text fill="#000000" font-family="sans-serif" font-size="14" lengthAdjust="spacing" textLength="121.8984" x="37.05" y="382.332">CreateRepository</text></g><!--entity CreateAdapter--><g class="entity" data-entity="CreateAdapter" data-source-line="13" data-uid="ent0009" id="entity_CreateAdapter"><rect fill="#F1F1F1" height="46.2969" rx="2.5" ry="2.5" style="stroke:#181818;stroke-width:0.5;" width="162.5889" x="21.71" y="482.7869"/><rect fill="#F1F1F1" height="10" style="stroke:#181818;stroke-width:0.5;" width="15" x="164.2989" y="487.7869"/><rect fill="#F1F1F1" height="2" style="stroke:#181818;stroke-width:0.5;" width="4" x="162.2989" y="489.7869"/><rect fill="#F1F1F1" height="2" style="stroke:#181818;stroke-width:0.5;" width="4" x="162.2989" y="493.7869"/><text fill="#000000" font-family="sans-serif" font-size="14" lengthAdjust="spacing" textLength="122.5889" x="36.71" y="515.782">DatabaseAdapter</text></g><!--entity ReadCtrl--><g class="entity" data-entity="ReadCtrl" data-source-line="17" data-uid="ent0011" id="entity_ReadCtrl"><rect fill="#F1F1F1" height="46.2969" rx="2.5" ry="2.5" style="stroke:#181818;stroke-width:0.5;" width="144.9795" x="248.51" y="78.2969"/><rect fill="#F1F1F1" height="10" style="stroke:#181818;stroke-width:0.5;" width="15" x="373.4895" y="83.2969"/><rect fill="#F1F1F1" height="2" style="stroke:#181818;stroke-width:0.5;" width="4" x="371.4895" y="85.2969"/><rect fill="#F1F1F1" height="2" style="stroke:#181818;stroke-width:0.5;" width="4" x="371.4895" y="89.2969"/><text fill="#000000" font-family="sans-serif" font-size="14" lengthAdjust="spacing" textLength="104.9795" x="263.51" y="111.292">ReadController</text></g><!--entity ReadSvc--><g class="entity" data-entity="ReadSvc" data-source-line="18" data-uid="ent0012" id="entity_ReadSvc"><rect fill="#F1F1F1" height="46.2969" rx="2.5" ry="2.5" style="stroke:#181818;stroke-width:0.5;" width="127.5479" x="257.23" y="209.7469"/><rect fill="#F1F1F1" height="10" style="stroke:#181818;stroke-width:0.5;" width="15" x="364.7779" y="214.7469"/><rect fill="#F1F1F1" height="2" style="stroke:#181818;stroke-width:0.5;" width="4" x="362.7779" y="216.7469"/><rect fill="#F1F1F1" height="2" style="stroke:#181818;stroke-width:0.5;" width="4" x="362.7779" y="220.7469"/><text fill="#000000" font-family="sans-serif" font-size="14" lengthAdjust="spacing" textLength="87.5479" x="272.23" y="242.742">ReadService</text></g><!--entity ReadRepo--><g class="entity" data-entity="ReadRepo" data-source-line="19" data-uid="ent0013" id="entity_ReadRepo"><rect fill="#F1F1F1" height="46.2969" rx="2.5" ry="2.5" style="stroke:#181818;stroke-width:0.5;" width="150.8789" x="245.56" y="349.3369"/><rect fill="#F1F1F1" height="10" style="stroke:#181818;stroke-width:0.5;" width="15" x="376.4389" y="354.3369"/><rect fill="#F1F1F1" height="2" style="stroke:#181818;stroke-width:0.5;" width="4" x="374.4389" y="356.3369"/><rect fill="#F1F1F1" height="2" style="stroke:#181818;stroke-width:0.5;" width="4" x="374.4389" y="360.3369"/><text fill="#000000" font-family="sans-serif" font-size="14" lengthAdjust="spacing" textLength="110.8789" x="260.56" y="382.332">ReadRepository</text></g><!--entity ReadAdapter--><g class="entity" data-entity="ReadAdapter" data-source-line="20" data-uid="ent0014" id="entity_ReadAdapter"><rect fill="#F1F1F1" height="46.2969" rx="2.5" ry="2.5" style="stroke:#181818;stroke-width:0.5;" width="162.5889" x="239.71" y="482.7869"/><rect fill="#F1F1F1" height="10" style="stroke:#181818;stroke-width:0.5;" width="15" x="382.2989" y="487.7869"/><rect fill="#F1F1F1" height="2" style="stroke:#181818;stroke-width:0.5;" width="4" x="380.2989" y="489.7869"/><rect fill="#F1F1F1" height="2" style="stroke:#181818;stroke-width:0.5;" width="4" x="380.2989" y="493.7869"/><text fill="#000000" font-family="sans-serif" font-size="14" lengthAdjust="spacing" textLength="122.5889" x="254.71" y="515.782">DatabaseAdapter</text></g><!--entity UpdateCtrl--><g class="entity" data-entity="UpdateCtrl" data-source-line="24" data-uid="ent0016" id="entity_UpdateCtrl"><rect fill="#F1F1F1" height="46.2969" rx="2.5" ry="2.5" style="stroke:#181818;stroke-width:0.5;" width="159.875" x="461.06" y="78.2969"/><rect fill="#F1F1F1" height="10" style="stroke:#181818;stroke-width:0.5;" width="15" x="600.935" y="83.2969"/><rect fill="#F1F1F1" height="2" style="stroke:#181818;stroke-width:0.5;" width="4" x="598.935" y="85.2969"/><rect fill="#F1F1F1" height="2" style="stroke:#181818;stroke-width:0.5;" width="4" x="598.935" y="89.2969"/><text fill="#000000" font-family="sans-serif" font-size="14" lengthAdjust="spacing" textLength="119.875" x="476.06" y="111.292">UpdateController</text></g><!--entity UpdateSvc--><g class="entity" data-entity="UpdateSvc" data-source-line="25" data-uid="ent0017" id="entity_UpdateSvc"><rect fill="#F1F1F1" height="46.2969" rx="2.5" ry="2.5" style="stroke:#181818;stroke-width:0.5;" width="142.4434" x="469.78" y="209.7469"/><rect fill="#F1F1F1" height="10" style="stroke:#181818;stroke-width:0.5;" width="15" x="592.2234" y="214.7469"/><rect fill="#F1F1F1" height="2" style="stroke:#181818;stroke-width:0.5;" width="4" x="590.2234" y="216.7469"/><rect fill="#F1F1F1" height="2" style="stroke:#181818;stroke-width:0.5;" width="4" x="590.2234" y="220.7469"/><text fill="#000000" font-family="sans-serif" font-size="14" lengthAdjust="spacing" textLength="102.4434" x="484.78" y="242.742">UpdateService</text></g><!--entity UpdateRepo--><g class="entity" data-entity="UpdateRepo" data-source-line="26" data-uid="ent0018" id="entity_UpdateRepo"><rect fill="#F1F1F1" height="46.2969" rx="2.5" ry="2.5" style="stroke:#181818;stroke-width:0.5;" width="165.7744" x="458.11" y="349.3369"/><rect fill="#F1F1F1" height="10" style="stroke:#181818;stroke-width:0.5;" width="15" x="603.8844" y="354.3369"/><rect fill="#F1F1F1" height="2" style="stroke:#181818;stroke-width:0.5;" width="4" x="601.8844" y="356.3369"/><rect fill="#F1F1F1" height="2" style="stroke:#181818;stroke-width:0.5;" width="4" x="601.8844" y="360.3369"/><text fill="#000000" font-family="sans-serif" font-size="14" lengthAdjust="spacing" textLength="125.7744" x="473.11" y="382.332">UpdateRepository</text></g><!--entity UpdateAdapter--><g class="entity" data-entity="UpdateAdapter" data-source-line="27" data-uid="ent0019" id="entity_UpdateAdapter"><rect fill="#F1F1F1" height="46.2969" rx="2.5" ry="2.5" style="stroke:#181818;stroke-width:0.5;" width="162.5889" x="458.71" y="482.7869"/><rect fill="#F1F1F1" height="10" style="stroke:#181818;stroke-width:0.5;" width="15" x="601.2989" y="487.7869"/><rect fill="#F1F1F1" height="2" style="stroke:#181818;stroke-width:0.5;" width="4" x="599.2989" y="489.7869"/><rect fill="#F1F1F1" height="2" style="stroke:#181818;stroke-width:0.5;" width="4" x="599.2989" y="493.7869"/><text fill="#000000" font-family="sans-serif" font-size="14" lengthAdjust="spacing" textLength="122.5889" x="473.71" y="515.782">DatabaseAdapter</text></g><!--entity DeleteCtrl--><g class="entity" data-entity="DeleteCtrl" data-source-line="31" data-uid="ent0021" id="entity_DeleteCtrl"><rect fill="#F1F1F1" height="46.2969" rx="2.5" ry="2.5" style="stroke:#181818;stroke-width:0.5;" width="155.1719" x="683.41" y="78.2969"/><rect fill="#F1F1F1" height="10" style="stroke:#181818;stroke-width:0.5;" width="15" x="818.5819" y="83.2969"/><rect fill="#F1F1F1" height="2" style="stroke:#181818;stroke-width:0.5;" width="4" x="816.5819" y="85.2969"/><rect fill="#F1F1F1" height="2" style="stroke:#181818;stroke-width:0.5;" width="4" x="816.5819" y="89.2969"/><text fill="#000000" font-family="sans-serif" font-size="14" lengthAdjust="spacing" textLength="115.1719" x="698.41" y="111.292">DeleteController</text></g><!--entity DeleteSvc--><g class="entity" data-entity="DeleteSvc" data-source-line="32" data-uid="ent0022" id="entity_DeleteSvc"><rect fill="#F1F1F1" height="46.2969" rx="2.5" ry="2.5" style="stroke:#181818;stroke-width:0.5;" width="137.7402" x="692.13" y="209.7469"/><rect fill="#F1F1F1" height="10" style="stroke:#181818;stroke-width:0.5;" width="15" x="809.8702" y="214.7469"/><rect fill="#F1F1F1" height="2" style="stroke:#181818;stroke-width:0.5;" width="4" x="807.8702" y="216.7469"/><rect fill="#F1F1F1" height="2" style="stroke:#181818;stroke-width:0.5;" width="4" x="807.8702" y="220.7469"/><text fill="#000000" font-family="sans-serif" font-size="14" lengthAdjust="spacing" textLength="97.7402" x="707.13" y="242.742">DeleteService</text></g><!--entity DeleteRepo--><g class="entity" data-entity="DeleteRepo" data-source-line="33" data-uid="ent0023" id="entity_DeleteRepo"><rect fill="#F1F1F1" height="46.2969" rx="2.5" ry="2.5" style="stroke:#181818;stroke-width:0.5;" width="161.0713" x="680.46" y="349.3369"/><rect fill="#F1F1F1" height="10" style="stroke:#181818;stroke-width:0.5;" width="15" x="821.5313" y="354.3369"/><rect fill="#F1F1F1" height="2" style="stroke:#181818;stroke-width:0.5;" width="4" x="819.5313" y="356.3369"/><rect fill="#F1F1F1" height="2" style="stroke:#181818;stroke-width:0.5;" width="4" x="819.5313" y="360.3369"/><text fill="#000000" font-family="sans-serif" font-size="14" lengthAdjust="spacing" textLength="121.0713" x="695.46" y="382.332">DeleteRepository</text></g><!--entity DeleteAdapter--><g class="entity" data-entity="DeleteAdapter" data-source-line="34" data-uid="ent0024" id="entity_DeleteAdapter"><rect fill="#F1F1F1" height="46.2969" rx="2.5" ry="2.5" style="stroke:#181818;stroke-width:0.5;" width="162.5889" x="679.71" y="482.7869"/><rect fill="#F1F1F1" height="10" style="stroke:#181818;stroke-width:0.5;" width="15" x="822.2989" y="487.7869"/><rect fill="#F1F1F1" height="2" style="stroke:#181818;stroke-width:0.5;" width="4" x="820.2989" y="489.7869"/><rect fill="#F1F1F1" height="2" style="stroke:#181818;stroke-width:0.5;" width="4" x="820.2989" y="493.7869"/><text fill="#000000" font-family="sans-serif" font-size="14" lengthAdjust="spacing" textLength="122.5889" x="694.71" y="515.782">DatabaseAdapter</text></g><!--entity DB--><g class="entity" data-entity="DB" data-source-line="37" data-uid="ent0025" id="entity_DB"><path d="M379.62,602.0769 C379.62,592.0769 429.9965,592.0769 429.9965,592.0769 C429.9965,592.0769 480.3729,592.0769 480.3729,602.0769 L480.3729,627.3738 C480.3729,637.3738 429.9965,637.3738 429.9965,637.3738 C429.9965,637.3738 379.62,637.3738 379.62,627.3738 L379.62,602.0769" fill="#F1F1F1" style="stroke:#181818;stroke-width:0.5;"/><path d="M379.62,602.0769 C379.62,612.0769 429.9965,612.0769 429.9965,612.0769 C429.9965,612.0769 480.3729,612.0769 480.3729,602.0769" fill="none" style="stroke:#181818;stroke-width:0.5;"/><text fill="#000000" font-family="sans-serif" font-size="14" lengthAdjust="spacing" textLength="80.7529" x="389.62" y="629.072">PostgreSQL</text></g><!--link Jenkins to Tests--><g class="link" data-entity-1="Jenkins" data-entity-2="Tests" data-source-line="40" data-uid="lnk26" id="link_Jenkins_Tests"><path d="M969,102.5369 C969,105.2069 969,158.0069 969,195.3969" fill="none" id="Jenkins-to-Tests" style="stroke:#181818;stroke-width:1;"/><polygon fill="#181818" points="969,201.3969,973,192.3969,969,196.3969,965,192.3969,969,201.3969" style="stroke:#181818;stroke-width:1;"/><text fill="#000000" font-family="sans-serif" font-size="13" lengthAdjust="spacing" textLength="64.2256" x="970" y="167.6638">Run Tests</text></g><!--link Tests to Coverage--><g class="link" data-entity-1="Tests" data-entity-2="Coverage" data-source-line="41" data-uid="lnk27" id="link_Tests_Coverage"><path d="M974.33,264.4269 C978.3,287.2269 982.6774,312.3464 986.6574,335.1264" fill="none" id="Tests-to-Coverage" style="stroke:#181818;stroke-width:1;"/><polygon fill="#181818" points="987.69,341.0369,990.0813,331.4827,986.8295,336.1115,982.2007,332.8596,987.69,341.0369" style="stroke:#181818;stroke-width:1;"/><text fill="#000000" font-family="sans-serif" font-size="13" lengthAdjust="spacing" textLength="108.5259" x="983" y="307.2538">Generate Report</text></g><!--link CreateCtrl to CreateSvc--><g class="link" data-entity-1="CreateCtrl" data-entity-2="CreateSvc" data-source-line="44" data-uid="lnk28" id="link_CreateCtrl_CreateSvc"><path d="M103,124.9969 C103,148.7569 103,179.9469 103,203.6069" fill="none" id="CreateCtrl-to-CreateSvc" style="stroke:#181818;stroke-width:1;"/><polygon fill="#181818" points="103,209.6069,107,200.6069,103,204.6069,99,200.6069,103,209.6069" style="stroke:#181818;stroke-width:1;"/></g><!--link CreateSvc to CreateRepo--><g class="link" data-entity-1="CreateSvc" data-entity-2="CreateRepo" data-source-line="45" data-uid="lnk29" id="link_CreateSvc_CreateRepo"><path d="M103,256.3069 C103,281.8969 103,317.4969 103,343.0869" fill="none" id="CreateSvc-to-CreateRepo" style="stroke:#181818;stroke-width:1;"/><polygon fill="#181818" points="103,349.0869,107,340.0869,103,344.0869,99,340.0869,103,349.0869" style="stroke:#181818;stroke-width:1;"/></g><!--link CreateRepo to CreateAdapter--><g class="link" data-entity-1="CreateRepo" data-entity-2="CreateAdapter" data-source-line="46" data-uid="lnk30" id="link_CreateRepo_CreateAdapter"><path d="M103,396.0869 C103,420.3069 103,452.5169 103,476.6269" fill="none" id="CreateRepo-to-CreateAdapter" style="stroke:#181818;stroke-width:1;"/><polygon fill="#181818" points="103,482.6269,107,473.6269,103,477.6269,99,473.6269,103,482.6269" style="stroke:#181818;stroke-width:1;"/></g><!--link CreateAdapter to DB--><g class="link" data-entity-1="CreateAdapter" data-entity-2="DB" data-source-line="47" data-uid="lnk31" id="link_CreateAdapter_DB"><path d="M159.61,529.5669 C179.8,537.3669 202.8,545.9269 224,553.0769 C276.46,570.7769 331.5888,586.7412 373.4988,598.3812" fill="none" id="CreateAdapter-to-DB" style="stroke:#181818;stroke-width:1;"/><polygon fill="#181818" points="379.28,599.9869,371.6787,593.7243,374.4624,598.6488,369.5378,601.4325,379.28,599.9869" style="stroke:#181818;stroke-width:1;"/></g><!--link ReadCtrl to ReadSvc--><g class="link" data-entity-1="ReadCtrl" data-entity-2="ReadSvc" data-source-line="50" data-uid="lnk32" id="link_ReadCtrl_ReadSvc"><path d="M321,124.9969 C321,148.7569 321,179.9469 321,203.6069" fill="none" id="ReadCtrl-to-ReadSvc" style="stroke:#181818;stroke-width:1;"/><polygon fill="#181818" points="321,209.6069,325,200.6069,321,204.6069,317,200.6069,321,209.6069" style="stroke:#181818;stroke-width:1;"/></g><!--link ReadSvc to ReadRepo--><g class="link" data-entity-1="ReadSvc" data-entity-2="ReadRepo" data-source-line="51" data-uid="lnk33" id="link_ReadSvc_ReadRepo"><path d="M321,256.3069 C321,281.8969 321,317.4969 321,343.0869" fill="none" id="ReadSvc-to-ReadRepo" style="stroke:#181818;stroke-width:1;"/><polygon fill="#181818" points="321,349.0869,325,340.0869,321,344.0869,317,340.0869,321,349.0869" style="stroke:#181818;stroke-width:1;"/></g><!--link ReadRepo to ReadAdapter--><g class="link" data-entity-1="ReadRepo" data-entity-2="ReadAdapter" data-source-line="52" data-uid="lnk34" id="link_ReadRepo_ReadAdapter"><path d="M321,396.0869 C321,420.3069 321,452.5169 321,476.6269" fill="none" id="ReadRepo-to-ReadAdapter" style="stroke:#181818;stroke-width:1;"/><polygon fill="#181818" points="321,482.6269,325,473.6269,321,477.6269,317,473.6269,321,482.6269" style="stroke:#181818;stroke-width:1;"/></g><!--link ReadAdapter to DB--><g class="link" data-entity-1="ReadAdapter" data-entity-2="DB" data-source-line="53" data-uid="lnk35" id="link_ReadAdapter_DB"><path d="M343.85,529.3169 C362.58,547.6669 384.655,569.297 403.265,587.537" fill="none" id="ReadAdapter-to-DB" style="stroke:#181818;stroke-width:1;"/><polygon fill="#181818" points="407.55,591.7369,403.9224,582.5804,403.9791,588.237,398.3226,588.2938,407.55,591.7369" style="stroke:#181818;stroke-width:1;"/></g><!--link UpdateCtrl to UpdateSvc--><g class="link" data-entity-1="UpdateCtrl" data-entity-2="UpdateSvc" data-source-line="56" data-uid="lnk36" id="link_UpdateCtrl_UpdateSvc"><path d="M541,124.9969 C541,148.7569 541,179.9469 541,203.6069" fill="none" id="UpdateCtrl-to-UpdateSvc" style="stroke:#181818;stroke-width:1;"/><polygon fill="#181818" points="541,209.6069,545,200.6069,541,204.6069,537,200.6069,541,209.6069" style="stroke:#181818;stroke-width:1;"/></g><!--link UpdateSvc to UpdateRepo--><g class="link" data-entity-1="UpdateSvc" data-entity-2="UpdateRepo" data-source-line="57" data-uid="lnk37" id="link_UpdateSvc_UpdateRepo"><path d="M541,256.3069 C541,281.8969 541,317.4969 541,343.0869" fill="none" id="UpdateSvc-to-UpdateRepo" style="stroke:#181818;stroke-width:1;"/><polygon fill="#181818" points="541,349.0869,545,340.0869,541,344.0869,537,340.0869,541,349.0869" style="stroke:#181818;stroke-width:1;"/></g><!--link UpdateRepo to UpdateAdapter--><g class="link" data-entity-1="UpdateRepo" data-entity-2="UpdateAdapter" data-source-line="58" data-uid="lnk38" id="link_UpdateRepo_UpdateAdapter"><path d="M540.83,396.0869 C540.64,420.3069 540.3948,452.517 540.2148,476.627" fill="none" id="UpdateRepo-to-UpdateAdapter" style="stroke:#181818;stroke-width:1;"/><polygon fill="#181818" points="540.17,482.6269,544.2371,473.657,540.2073,477.627,536.2373,473.5973,540.17,482.6269" style="stroke:#181818;stroke-width:1;"/></g><!--link UpdateAdapter to DB--><g class="link" data-entity-1="UpdateAdapter" data-entity-2="DB" data-source-line="59" data-uid="lnk39" id="link_UpdateAdapter_DB"><path d="M516.94,529.3169 C498.04,547.6669 475.7452,569.3177 456.9552,587.5577" fill="none" id="UpdateAdapter-to-DB" style="stroke:#181818;stroke-width:1;"/><polygon fill="#181818" points="452.65,591.7369,461.8939,588.3382,456.2377,588.2542,456.3217,582.598,452.65,591.7369" style="stroke:#181818;stroke-width:1;"/></g><!--link DeleteCtrl to DeleteSvc--><g class="link" data-entity-1="DeleteCtrl" data-entity-2="DeleteSvc" data-source-line="62" data-uid="lnk40" id="link_DeleteCtrl_DeleteSvc"><path d="M761,124.9969 C761,148.7569 761,179.9469 761,203.6069" fill="none" id="DeleteCtrl-to-DeleteSvc" style="stroke:#181818;stroke-width:1;"/><polygon fill="#181818" points="761,209.6069,765,200.6069,761,204.6069,757,200.6069,761,209.6069" style="stroke:#181818;stroke-width:1;"/></g><!--link DeleteSvc to DeleteRepo--><g class="link" data-entity-1="DeleteSvc" data-entity-2="DeleteRepo" data-source-line="63" data-uid="lnk41" id="link_DeleteSvc_DeleteRepo"><path d="M761,256.3069 C761,281.8969 761,317.4969 761,343.0869" fill="none" id="DeleteSvc-to-DeleteRepo" style="stroke:#181818;stroke-width:1;"/><polygon fill="#181818" points="761,349.0869,765,340.0869,761,344.0869,757,340.0869,761,349.0869" style="stroke:#181818;stroke-width:1;"/></g><!--link DeleteRepo to DeleteAdapter--><g class="link" data-entity-1="DeleteRepo" data-entity-2="DeleteAdapter" data-source-line="64" data-uid="lnk42" id="link_DeleteRepo_DeleteAdapter"><path d="M761,396.0869 C761,420.3069 761,452.5169 761,476.6269" fill="none" id="DeleteRepo-to-DeleteAdapter" style="stroke:#181818;stroke-width:1;"/><polygon fill="#181818" points="761,482.6269,765,473.6269,761,477.6269,757,473.6269,761,482.6269" style="stroke:#181818;stroke-width:1;"/></g><!--link DeleteAdapter to DB--><g class="link" data-entity-1="DeleteAdapter" data-entity-2="DB" data-source-line="65" data-uid="lnk43" id="link_DeleteAdapter_DB"><path d="M704.72,529.5169 C684.45,537.3469 661.32,545.9469 640,553.0769 C586.2,571.0769 529.4114,587.1685 486.6514,598.7485" fill="none" id="DeleteAdapter-to-DB" style="stroke:#181818;stroke-width:1;"/><polygon fill="#181818" points="480.86,600.3169,490.5927,601.8252,485.6862,599.0099,488.5015,594.1034,480.86,600.3169" style="stroke:#181818;stroke-width:1;"/></g><!--SRC=[TPDFRzim3CNl-XI4Bpq5k_TGeBM1eSKAjCbosdPGRJRGQaYk96SeXdttHQB-q6wIYycdPxsV0z8hFo8ygGb7fH7Q-ozj1nzmQzzdvR7tivKm83ogtXg7zgXwPHoqstqdH3-QUO3c0VMRqexURK0woCfV0QVVZxrM7hwZy-wdFXZmf-fNi4M9BAqvefK7X2rEnlhWs_oUJ-zjR1IYFvl4Fo4csRy5VzDQb1vX5zcmoPaajqPxQyOHBLr0ehSZDwLNcMDtxBaXC3dbZVrWdY2IgPDUlaY7juES_28fAGlUBShX4sqGLwnHAgIXuvonpvIXMJ5cwJ9XS9pZsq_3kV-Jv1LZ4WibzPmpAPcKsXLh5I_JakSSRuSZdk4bUSMRnC9BFUTDIkQbTiLRnSkyv66yGp91ysISFrZSFN-BkzBT2N5LDYRiXj87U1tD7v75pUQ6TWMkOJlhj3UaXBEoFDVm5VMfz7cFmjNB1Q6RwoBG1MNgIyNq-AMrP2Vv-nPTFAUluhDEmNcgeoaFSNeMBGRcegWvZDKiQZcs55R7CnhhB9QAwJ6qbkma1oyw5hsSG8gkaqR6CbQbOdgChYKxoT6BBaV_1m00]--></g></svg>