<svg xmlns="http://www.w3.org/2000/svg" xmlns:xlink="http://www.w3.org/1999/xlink" contentStyleType="text/css" data-diagram-type="DESCRIPTION" height="775px" preserveAspectRatio="none" style="width:1434px;height:775px;background:#F8F9FA;" version="1.1" viewBox="0 0 1434 775" width="1434px" zoomAndPan="magnify"><title>&lt;size:18&gt;&lt;b&gt;Arquitectura de Microservicios&lt;/b&gt;&lt;/size&gt;</title><defs/><g><rect fill="#F8F9FA" height="775" style="stroke:none;stroke-width:1;" width="1434" x="0" y="0"/><text fill="#000000" font-family="Arial" font-size="18" font-weight="bold" lengthAdjust="spacing" textLength="311.8447" x="554.1844" y="26.708">Arquitectura de Microservicios</text><text fill="#000000" font-family="Arial" font-size="12" font-weight="bold" lengthAdjust="spacing" textLength="196.2832" x="611.9652" y="42.0918">Docker Compose + MongoDB</text><!--cluster dockerHost--><g class="cluster" data-entity="dockerHost" data-source-line="65" data-uid="ent0002" id="cluster_dockerHost"><path d="M41.7576,96.2747 C52.8283,76.7338 69.2215,72.4636 84.0767,92.1968 C95.2103,70.8822 112.8844,65.5594 127.8478,88.4004 C140.7354,73.4267 154.9262,75.9341 164.8839,91.9067 C177.5144,71.2985 191.0874,67.0067 207.254,88.334 C221.1033,69.7725 236.1496,73.052 248.4442,90.1307 C255.8971,66.7166 275.8622,68.429 288.6605,84.7159 C305.8696,62.1798 322.4269,61.9219 335.764,88.4343 C345.9342,73.0521 362.6077,73.3691 372.8577,88.3367 C385.9017,71.028 405.0143,71.6144 414.2365,92.4794 C428.9641,69.5576 442.8937,69.2968 457.4775,92.6138 C467.5665,73.3259 482.3009,68.4346 496.9452,87.9845 C514.977,66.4742 529.1338,72.457 542.4705,93.0599 C551.7455,75.9491 569.4964,76.5035 578.6867,93.1508 C596.3705,69.2012 611.148,70.775 626.2136,95.697 C627.3671,94.0538 628.8364,94.213 629.7353,95.9614 C649.193,108.058 654.6751,129.4667 630.2581,142.0609 C653.0586,153.0577 653.6994,175.7883 632.5943,188.9716 C653.1044,200.2195 653.6415,222.077 635.326,235.5996 C654.9022,244.5767 655.1812,264.2807 637.3224,275.1476 C663.3025,292.817 659.5473,312.2654 633.329,325.8212 C653.1196,336.5452 651.6353,353.085 634.5741,364.9808 C655.9594,381.3449 656.3909,395.9418 634.3263,412.0772 C654.3814,433.2965 645.9777,452.7564 619.2136,458.847 C621.2129,458.2642 622.3612,459.4634 621.8849,461.4355 C608.6485,483.9295 593.6581,485.7146 578.0369,463.7896 C568.1306,481.0546 552.6624,481.4885 542.7233,463.8228 C528.0146,483.6612 511.2714,484.2778 496.5574,463.8288 C488.5504,479.6055 470.8199,482.6223 460.249,466.7721 C448.8048,484.3868 432.0998,484.9036 419.3186,468.3748 C407.785,493.6843 390.2895,493.2563 374.377,472.6619 C361.2443,494.4952 341.9628,490.6091 330.0873,471.3083 C320.567,491.8536 301.87,491.9584 292.4028,471.2598 C276.1171,494.0807 259.7741,487.8415 247.6559,466.9899 C233.2112,483.5084 219.1899,486.5619 206.8099,464.7877 C194.9099,483.1665 176.9049,479.1228 167.3649,462.1541 C157.2541,485.5147 140.2567,486.7738 126.066,465.9692 C113.3763,482.8564 96.5793,480.548 87.0074,462.4849 C67.2586,482.8698 42.0028,482.7619 32.2136,451.847 C36.5341,449.8988 39.376,450.8224 39.4286,456.1053 C17.2179,448.0185 16.7762,428.3011 33.0855,414.361 C11.6914,400.3319 12.9218,381.9609 33.565,368.37 C8.9634,354.5015 12.3263,336.1107 33.4515,322.1301 C13.0116,309.0766 14.3218,296.3323 30.5534,280.7127 C13.2612,264.8559 10.2003,242.048 37.7673,232.9692 C13.9983,220.024 12.8183,198.9949 36.7998,185.0849 C17.3896,177.9082 14.1314,159.4402 31.9816,147.4884 C6.9365,126.3474 6,102.6716 39.2136,88.697 C43.09,89.9392 44.9896,92.6461 41.7576,96.2747" fill="#FAFAFA" style="stroke:#BDC3C7;stroke-width:1;"/><text fill="#000000" font-family="Arial" font-size="11" font-weight="bold" lengthAdjust="spacing" textLength="75.8076" x="291.3098" y="103.9074">Docker Host</text></g><!--cluster Docker Compose Stack--><g class="cluster" data-entity="Docker Compose Stack" data-source-line="66" data-uid="ent0003" id="cluster_Docker Compose Stack"><path d="M53.2136,119.697 L191.2522,119.697 A7.5,7.5 0 0 1 196.2522,124.697 L203.2522,138.5017 L605.2136,138.5017 A5,5 0 0 1 610.2136,143.5017 L610.2136,437.847 A5,5 0 0 1 605.2136,442.847 L53.2136,442.847 A5,5 0 0 1 48.2136,437.847 L48.2136,124.697 A5,5 0 0 1 53.2136,119.697" fill="#FAFAFA" style="stroke:#BDC3C7;stroke-width:1;"/><line style="stroke:#BDC3C7;stroke-width:1;" x1="48.2136" x2="203.2522" y1="138.5017" y2="138.5017"/><text fill="#000000" font-family="Arial" font-size="11" font-weight="bold" lengthAdjust="spacing" textLength="142.0386" x="52.2136" y="131.9074">Docker Compose Stack</text></g><!--cluster healthbox--><g class="cluster" data-entity="healthbox" data-source-line="97" data-uid="ent0015" id="cluster_healthbox"><rect fill="#D5F4E6" height="82.8" rx="5" ry="5" style="stroke:#BDC3C7;stroke-width:1;" width="769" x="659.2136" y="519.167"/><text fill="#34495E" font-family="Arial" font-size="13" font-weight="bold" lengthAdjust="spacing" textLength="205.1626" x="941.1323" y="533.2339">Health Checks &amp; Monitoring</text></g><!--entity createSvc--><g class="entity" data-entity="createSvc" data-source-line="71" data-uid="ent0004" id="entity_createSvc"><rect fill="#27AE60" height="68.4141" rx="5" ry="5" style="stroke:#2C3E50;stroke-width:2;" width="87.5879" x="64.4236" y="150.697"/><rect fill="#27AE60" height="10" style="stroke:#2C3E50;stroke-width:2;" width="15" x="132.0115" y="155.697"/><rect fill="#27AE60" height="2" style="stroke:#2C3E50;stroke-width:2;" width="4" x="130.0115" y="157.697"/><rect fill="#27AE60" height="2" style="stroke:#2C3E50;stroke-width:2;" width="4" x="130.0115" y="161.697"/><text fill="#2C3E50" font-family="Arial" font-size="11" font-weight="bold" lengthAdjust="spacing" textLength="47.5879" x="79.4236" y="180.9074">CREATE</text><text fill="#2C3E50" font-family="Arial" font-size="11" font-weight="bold" lengthAdjust="spacing" textLength="45.7295" x="79.4236" y="193.7121">Service</text><text fill="#2C3E50" font-family="Arial" font-size="11" font-style="italic" font-weight="bold" lengthAdjust="spacing" textLength="35.0142" x="79.4236" y="206.5168">:8080</text></g><!--entity readSvc--><g class="entity" data-entity="readSvc" data-source-line="72" data-uid="ent0005" id="entity_readSvc"><rect fill="#3498DB" height="68.4141" rx="5" ry="5" style="stroke:#2C3E50;stroke-width:2;" width="85.7295" x="212.3536" y="150.697"/><rect fill="#3498DB" height="10" style="stroke:#2C3E50;stroke-width:2;" width="15" x="278.0831" y="155.697"/><rect fill="#3498DB" height="2" style="stroke:#2C3E50;stroke-width:2;" width="4" x="276.0831" y="157.697"/><rect fill="#3498DB" height="2" style="stroke:#2C3E50;stroke-width:2;" width="4" x="276.0831" y="161.697"/><text fill="#2C3E50" font-family="Arial" font-size="11" font-weight="bold" lengthAdjust="spacing" textLength="33.6284" x="227.3536" y="180.9074">READ</text><text fill="#2C3E50" font-family="Arial" font-size="11" font-weight="bold" lengthAdjust="spacing" textLength="45.7295" x="227.3536" y="193.7121">Service</text><text fill="#2C3E50" font-family="Arial" font-size="11" font-style="italic" font-weight="bold" lengthAdjust="spacing" textLength="35.0142" x="227.3536" y="206.5168">:8081</text></g><!--entity updateSvc--><g class="entity" data-entity="updateSvc" data-source-line="73" data-uid="ent0006" id="entity_updateSvc"><rect fill="#F39C12" height="68.4141" rx="5" ry="5" style="stroke:#2C3E50;stroke-width:2;" width="89.6558" x="358.3836" y="150.697"/><rect fill="#F39C12" height="10" style="stroke:#2C3E50;stroke-width:2;" width="15" x="428.0394" y="155.697"/><rect fill="#F39C12" height="2" style="stroke:#2C3E50;stroke-width:2;" width="4" x="426.0394" y="157.697"/><rect fill="#F39C12" height="2" style="stroke:#2C3E50;stroke-width:2;" width="4" x="426.0394" y="161.697"/><text fill="#2C3E50" font-family="Arial" font-size="11" font-weight="bold" lengthAdjust="spacing" textLength="49.6558" x="373.3836" y="180.9074">UPDATE</text><text fill="#2C3E50" font-family="Arial" font-size="11" font-weight="bold" lengthAdjust="spacing" textLength="45.7295" x="373.3836" y="193.7121">Service</text><text fill="#2C3E50" font-family="Arial" font-size="11" font-style="italic" font-weight="bold" lengthAdjust="spacing" textLength="35.0142" x="373.3836" y="206.5168">:8082</text></g><!--entity deleteSvc--><g class="entity" data-entity="deleteSvc" data-source-line="74" data-uid="ent0007" id="entity_deleteSvc"><rect fill="#E74C3C" height="68.4141" rx="5" ry="5" style="stroke:#2C3E50;stroke-width:2;" width="86.186" x="508.1236" y="150.697"/><rect fill="#E74C3C" height="10" style="stroke:#2C3E50;stroke-width:2;" width="15" x="574.3096" y="155.697"/><rect fill="#E74C3C" height="2" style="stroke:#2C3E50;stroke-width:2;" width="4" x="572.3096" y="157.697"/><rect fill="#E74C3C" height="2" style="stroke:#2C3E50;stroke-width:2;" width="4" x="572.3096" y="161.697"/><text fill="#2C3E50" font-family="Arial" font-size="11" font-weight="bold" lengthAdjust="spacing" textLength="46.186" x="523.1236" y="180.9074">DELETE</text><text fill="#2C3E50" font-family="Arial" font-size="11" font-weight="bold" lengthAdjust="spacing" textLength="45.7295" x="523.1236" y="193.7121">Service</text><text fill="#2C3E50" font-family="Arial" font-size="11" font-style="italic" font-weight="bold" lengthAdjust="spacing" textLength="35.0142" x="523.1236" y="206.5168">:8083</text></g><!--entity mongoDB--><g class="entity" data-entity="mongoDB" data-source-line="82" data-uid="ent0010" id="entity_mongoDB"><path d="M414.8536,369.427 C414.8536,359.427 469.2161,359.427 469.2161,359.427 C469.2161,359.427 523.5787,359.427 523.5787,369.427 L523.5787,416.8411 C523.5787,426.8411 469.2161,426.8411 469.2161,426.8411 C469.2161,426.8411 414.8536,426.8411 414.8536,416.8411 L414.8536,369.427" fill="#3498DB" style="stroke:#2980B9;stroke-width:3;"/><path d="M414.8536,369.427 C414.8536,379.427 469.2161,379.427 469.2161,379.427 C469.2161,379.427 523.5787,379.427 523.5787,369.427" fill="none" style="stroke:#2980B9;stroke-width:3;"/><text fill="#FFFFFF" font-family="Arial" font-size="11" font-weight="bold" lengthAdjust="spacing" textLength="59.2808" x="424.8536" y="393.6374">MongoDB</text><text fill="#FFFFFF" font-family="Arial" font-size="11" font-weight="bold" lengthAdjust="spacing" textLength="42.668" x="424.8536" y="406.4421">:27017</text><text fill="#FFFFFF" font-family="Arial" font-size="11" font-style="italic" font-weight="bold" lengthAdjust="spacing" textLength="88.7251" x="424.8536" y="419.2468">Base de Datos</text></g><!--entity ch--><g class="entity" data-entity="ch" data-source-line="98" data-uid="ent0016" id="entity_ch"><rect fill="#C8E6C9" height="32.8047" rx="5" ry="5" style="stroke:#181818;stroke-width:0.5;" width="98.8154" x="843.8036" y="553.167"/><text fill="#000000" font-family="Arial" font-size="11" lengthAdjust="spacing" textLength="78.8154" x="853.8036" y="573.3774">Create /health</text></g><!--entity rh--><g class="entity" data-entity="rh" data-source-line="99" data-uid="ent0017" id="entity_rh"><rect fill="#BBDEFB" height="32.8047" rx="5" ry="5" style="stroke:#181818;stroke-width:0.5;" width="90.1572" x="1002.1336" y="553.167"/><text fill="#000000" font-family="Arial" font-size="11" lengthAdjust="spacing" textLength="70.1572" x="1012.1336" y="573.3774">Read /health</text></g><!--entity uh--><g class="entity" data-entity="uh" data-source-line="100" data-uid="ent0018" id="entity_uh"><rect fill="#FFE0B2" height="32.8047" rx="5" ry="5" style="stroke:#181818;stroke-width:0.5;" width="101.8608" x="1152.2836" y="553.167"/><text fill="#000000" font-family="Arial" font-size="11" lengthAdjust="spacing" textLength="81.8608" x="1162.2836" y="573.3774">Update /health</text></g><!--entity dh--><g class="entity" data-entity="dh" data-source-line="101" data-uid="ent0019" id="entity_dh"><rect fill="#FFCDD2" height="32.8047" rx="5" ry="5" style="stroke:#181818;stroke-width:0.5;" width="98.1655" x="1314.1336" y="553.167"/><text fill="#000000" font-family="Arial" font-size="11" lengthAdjust="spacing" textLength="78.1655" x="1324.1336" y="573.3774">Delete /health</text></g><!--entity mh--><g class="entity" data-entity="mh" data-source-line="102" data-uid="ent0020" id="entity_mh"><rect fill="#B3E5FC" height="32.8047" rx="5" ry="5" style="stroke:#181818;stroke-width:0.5;" width="108.9937" x="674.7136" y="553.167"/><text fill="#000000" font-family="Arial" font-size="11" lengthAdjust="spacing" textLength="88.9937" x="684.7136" y="573.3774">MongoDB ping()</text></g><g class="entity" data-entity="GMN26" data-source-line="115" data-uid="ent0027" id="entity_GMN26"><path d="M650.4836,329.117 L650.4836,457.1639 A5,5 0 0 0 655.4836,462.1639 L862.9421,462.1639 A5,5 0 0 0 867.9421,457.1639 L867.9421,334.117 L857.9421,324.117 L655.4836,324.117 A5,5 0 0 0 650.4836,329.117" fill="#FFF9E6" style="stroke:#F39C12;stroke-width:1;"/><path d="M857.9421,324.117 L857.9421,331.617 A2.5,2.5 0 0 0 860.4421,334.117 L867.9421,334.117 L857.9421,324.117" fill="#FFF9E6" style="stroke:#F39C12;stroke-width:1;"/><text fill="#7D6608" font-family="Arial" font-size="11" font-weight="bold" lengthAdjust="spacing" textLength="116.7192" x="656.4836" y="339.3274">.env Configuraci&#243;n</text><text fill="#7D6608" font-family="Arial" font-size="11" lengthAdjust="spacing" textLength="192.0542" x="656.4836" y="352.1321">&#9552;&#9552;&#9552;&#9552;&#9552;&#9552;&#9552;&#9552;&#9552;&#9552;&#9552;&#9552;&#9552;&#9552;&#9552;&#9552;&#9552;&#9552;&#9552;&#9552;&#9552;&#9552;&#9552;&#9552;&#9552;&#9552;&#9552;&#9552;&#9552;</text><text fill="#7D6608" font-family="Arial" font-size="11" font-weight="bold" lengthAdjust="spacing" textLength="61.5742" x="656.4836" y="364.9368">Conexi&#243;n:</text><text fill="#7D6608" font-family="Arial" font-size="11" lengthAdjust="spacing" textLength="67.998" x="659.9802" y="377.7415">MONGO_URI</text><text fill="#7D6608" font-family="Arial" font-size="11" lengthAdjust="spacing" textLength="59.2432" x="659.9802" y="390.5462">DATABASE</text><text fill="#7D6608" font-family="Arial" font-size="11" lengthAdjust="spacing" textLength="70.0767" x="659.9802" y="403.3509">COLLECTION</text><text fill="#7D6608" font-family="Arial" font-size="11" lengthAdjust="spacing" textLength="3.4966" x="656.4836" y="416.1556">&#160;</text><text fill="#7D6608" font-family="Arial" font-size="11" font-weight="bold" lengthAdjust="spacing" textLength="84.0146" x="656.4836" y="428.9603">Credenciales:</text><text fill="#7D6608" font-family="Arial" font-size="11" lengthAdjust="spacing" textLength="191.0122" x="659.9802" y="441.7649">MONGO_INITDB_ROOT_USERNAME</text><text fill="#7D6608" font-family="Arial" font-size="11" lengthAdjust="spacing" textLength="192.9619" x="659.9802" y="454.5696">MONGO_INITDB_ROOT_PASSWORD</text></g><!--link createSvc to readSvc--><!--link updateSvc to deleteSvc--><!--link createSvc to mongoDB--><g class="link" data-entity-1="createSvc" data-entity-2="mongoDB" data-source-line="89" data-uid="lnk11" id="link_createSvc_mongoDB"><path d="M152.1636,218.607 C190.5636,247.177 240.2136,284.117 240.2136,284.117 C240.2136,284.117 341.1871,331.7471 408.9371,363.7071" fill="none" id="createSvc-to-mongoDB" style="stroke:#27AE60;stroke-width:2;"/><polygon fill="#27AE60" points="414.3636,366.267,407.9304,358.8095,409.8415,364.1338,404.5172,366.0449,414.3636,366.267" style="stroke:#27AE60;stroke-width:2;"/><text fill="#000000" font-family="Arial" font-size="11" font-weight="bold" lengthAdjust="spacing" textLength="44.709" x="246.6765" y="270.3274">INSERT</text><text fill="#000000" font-family="Arial" font-size="9" lengthAdjust="spacing" textLength="55.6348" x="241.2136" y="281.2757">MONGO_URI</text></g><!--link readSvc to mongoDB--><g class="link" data-entity-1="readSvc" data-entity-2="mongoDB" data-source-line="90" data-uid="lnk12" id="link_readSvc_mongoDB"><path d="M280.8136,219.427 C302.5436,247.877 330.2136,284.117 330.2136,284.117 C330.2136,284.117 381.1355,323.6959 422.0155,355.4559" fill="none" id="readSvc-to-mongoDB" style="stroke:#3498DB;stroke-width:2;"/><polygon fill="#3498DB" points="426.7536,359.137,422.1005,350.4566,422.8052,356.0694,417.1924,356.7741,426.7536,359.137" style="stroke:#3498DB;stroke-width:2;"/><text fill="#000000" font-family="Arial" font-size="11" font-weight="bold" lengthAdjust="spacing" textLength="42.2329" x="337.9145" y="270.3274">QUERY</text><text fill="#000000" font-family="Arial" font-size="9" lengthAdjust="spacing" textLength="55.6348" x="331.2136" y="281.2757">MONGO_URI</text></g><!--link updateSvc to mongoDB--><g class="link" data-entity-1="updateSvc" data-entity-2="mongoDB" data-source-line="91" data-uid="lnk13" id="link_updateSvc_mongoDB"><path d="M402.7536,219.517 C402.4936,238.757 402.2136,259.117 402.2136,259.117 C402.2136,259.117 402.2136,284.117 402.2136,284.117 C402.2136,284.117 425.8809,322.2782 445.5809,354.0382" fill="none" id="updateSvc-to-mongoDB" style="stroke:#F39C12;stroke-width:2;"/><polygon fill="#F39C12" points="448.7436,359.137,447.3988,349.3804,446.108,354.888,440.6004,353.5973,448.7436,359.137" style="stroke:#F39C12;stroke-width:2;"/><text fill="#000000" font-family="Arial" font-size="11" font-weight="bold" lengthAdjust="spacing" textLength="49.6558" x="406.2031" y="270.3274">UPDATE</text><text fill="#000000" font-family="Arial" font-size="9" lengthAdjust="spacing" textLength="55.6348" x="403.2136" y="281.2757">MONGO_URI</text></g><!--link deleteSvc to mongoDB--><g class="link" data-entity-1="deleteSvc" data-entity-2="mongoDB" data-source-line="92" data-uid="lnk14" id="link_deleteSvc_mongoDB"><path d="M537.8536,219.497 C522.5136,258.077 499.7304,315.3815 484.5104,353.6615" fill="none" id="deleteSvc-to-mongoDB" style="stroke:#E74C3C;stroke-width:2;"/><polygon fill="#E74C3C" points="482.2936,359.237,489.3358,352.3517,484.1409,354.5908,481.9018,349.3959,482.2936,359.237" style="stroke:#E74C3C;stroke-width:2;"/><text fill="#000000" font-family="Arial" font-size="11" font-weight="bold" lengthAdjust="spacing" textLength="46.186" x="525.938" y="270.3274">DELETE</text><text fill="#000000" font-family="Arial" font-size="9" lengthAdjust="spacing" textLength="55.6348" x="521.2136" y="281.2757">MONGO_URI</text></g><!--link createSvc to ch--><g class="link" data-entity-1="createSvc" data-entity-2="ch" data-source-line="105" data-uid="lnk21" id="link_createSvc_ch"><path d="M152.1136,205.607 C168.0536,212.757 182.2136,219.117 182.2136,219.117 C182.2136,219.117 592.2136,259.117 592.2136,259.117 C592.2136,259.117 898.2136,324.117 898.2136,324.117 C898.2136,324.117 898.2136,474.847 898.2136,474.847 C898.2136,474.847 895.8018,519.9354 894.3818,546.6754" fill="none" id="createSvc-to-ch" style="stroke:#16A085;stroke-width:1;stroke-dasharray:7.0,7.0;"/><polygon fill="#16A085" points="894.0636,552.667,898.5352,543.8918,894.3287,547.674,890.5465,543.4675,894.0636,552.667" style="stroke:#16A085;stroke-width:1;"/></g><!--link readSvc to rh--><g class="link" data-entity-1="readSvc" data-entity-2="rh" data-source-line="106" data-uid="lnk22" id="link_readSvc_rh"><path d="M298.5236,205.607 C314.2436,212.757 328.2136,219.117 328.2136,219.117 C328.2136,219.117 697.2136,259.117 697.2136,259.117 C697.2136,259.117 944.2136,324.117 944.2136,324.117 C944.2136,324.117 1015.554,493.4177 1038.284,547.3677" fill="none" id="readSvc-to-rh" style="stroke:#16A085;stroke-width:1;stroke-dasharray:7.0,7.0;"/><polygon fill="#16A085" points="1040.6136,552.897,1040.8054,543.05,1038.6723,548.2893,1033.433,546.1561,1040.6136,552.897" style="stroke:#16A085;stroke-width:1;"/></g><!--link updateSvc to uh--><g class="link" data-entity-1="updateSvc" data-entity-2="uh" data-source-line="107" data-uid="lnk23" id="link_updateSvc_uh"><path d="M448.1436,205.797 C464.1136,212.877 478.2136,219.117 478.2136,219.117 C478.2136,219.117 791.2136,259.117 791.2136,259.117 C791.2136,259.117 1022.2136,324.117 1022.2136,324.117 C1022.2136,324.117 1148.093,494.1251 1188.043,548.0751" fill="none" id="updateSvc-to-uh" style="stroke:#16A085;stroke-width:1;stroke-dasharray:7.0,7.0;"/><polygon fill="#16A085" points="1191.6136,552.897,1189.4723,543.2837,1188.6381,548.8787,1183.0431,548.0446,1191.6136,552.897" style="stroke:#16A085;stroke-width:1;"/></g><!--link deleteSvc to dh--><g class="link" data-entity-1="deleteSvc" data-entity-2="dh" data-source-line="108" data-uid="lnk24" id="link_deleteSvc_dh"><path d="M594.4836,195.477 C684.2036,215.327 882.2136,259.117 882.2136,259.117 C882.2136,259.117 1124.2136,324.117 1124.2136,324.117 C1124.2136,324.117 1290.9589,494.6569 1343.7089,548.6069" fill="none" id="deleteSvc-to-dh" style="stroke:#16A085;stroke-width:1;stroke-dasharray:7.0,7.0;"/><polygon fill="#16A085" points="1347.9036,552.897,1344.4717,543.6654,1344.408,549.3219,1338.7515,549.2583,1347.9036,552.897" style="stroke:#16A085;stroke-width:1;"/></g><!--link mongoDB to mh--><g class="link" data-entity-1="mongoDB" data-entity-2="mh" data-source-line="109" data-uid="lnk25" id="link_mongoDB_mh"><path d="M518.4236,427.157 C574.3636,464.687 658.4011,521.0541 700.5811,549.3541" fill="none" id="mongoDB-to-mh" style="stroke:#16A085;stroke-width:1;stroke-dasharray:7.0,7.0;"/><polygon fill="#16A085" points="705.5636,552.697,700.3185,544.361,701.4115,549.9112,695.8613,551.0043,705.5636,552.697" style="stroke:#16A085;stroke-width:1;"/></g><!--link mongoDB to GMN26--><g class="link" data-entity-1="mongoDB" data-entity-2="GMN26" data-source-line="115" data-uid="lnk28" id="link_mongoDB_GMN26"><path d="M524.0436,393.137 C545.8636,393.137 565.8836,393.137 565.8836,393.137 C565.8836,393.137 624.2936,393.137 650.3036,393.137" fill="none" id="mongoDB-GMN26" style="stroke:#454645;stroke-width:1;stroke-dasharray:7.0,7.0;"/></g><rect fill="none" height="136.8828" rx="5" ry="5" style="stroke:#000000;stroke-width:1;" width="203.8604" x="12" y="618.967"/><text fill="#000000" font-family="Arial" font-size="11" font-weight="bold" lengthAdjust="spacing" textLength="115.6558" x="17" y="634.1774">Operaciones CRUD</text><text fill="#000000" font-family="Arial" font-size="14" lengthAdjust="spacing" textLength="193.8604" x="17" y="649.7668">&#9472;&#9472;&#9472;&#9472;&#9472;&#9472;&#9472;&#9472;&#9472;&#9472;&#9472;&#9472;&#9472;&#9472;&#9472;&#9472;&#9472;&#9472;&#9472;&#9472;&#9472;&#9472;&#9472;</text><text fill="#27AE60" font-family="Arial" font-size="14" font-weight="bold" lengthAdjust="spacing" textLength="23.1123" x="17" y="666.0637">&#9646;&#9646;&#9646;</text><text fill="#000000" font-family="Arial" font-size="14" lengthAdjust="spacing" textLength="55.3232" x="44.5625" y="666.0637">CREATE</text><text fill="#3498DB" font-family="Arial" font-size="14" font-weight="bold" lengthAdjust="spacing" textLength="23.1123" x="17" y="682.3606">&#9646;&#9646;&#9646;</text><text fill="#000000" font-family="Arial" font-size="14" lengthAdjust="spacing" textLength="38.9307" x="44.5625" y="682.3606">READ</text><text fill="#F39C12" font-family="Arial" font-size="14" font-weight="bold" lengthAdjust="spacing" textLength="23.1123" x="17" y="698.6574">&#9646;&#9646;&#9646;</text><text fill="#000000" font-family="Arial" font-size="14" lengthAdjust="spacing" textLength="56.4443" x="44.5625" y="698.6574">UPDATE</text><text fill="#E74C3C" font-family="Arial" font-size="14" font-weight="bold" lengthAdjust="spacing" textLength="23.1123" x="17" y="714.9543">&#9646;&#9646;&#9646;</text><text fill="#000000" font-family="Arial" font-size="14" lengthAdjust="spacing" textLength="53.6689" x="44.5625" y="714.9543">DELETE</text><text fill="#000000" font-family="Arial" font-size="14" lengthAdjust="spacing" textLength="193.8604" x="17" y="731.2512">&#9472;&#9472;&#9472;&#9472;&#9472;&#9472;&#9472;&#9472;&#9472;&#9472;&#9472;&#9472;&#9472;&#9472;&#9472;&#9472;&#9472;&#9472;&#9472;&#9472;&#9472;&#9472;&#9472;</text><text fill="#16A085" font-family="Arial" font-size="14" font-weight="bold" lengthAdjust="spacing" textLength="27.1797" x="17" y="747.5481">- - -</text><text fill="#000000" font-family="Arial" font-size="14" lengthAdjust="spacing" textLength="93.4883" x="48.6299" y="747.5481">Health Check</text><!--SRC=[jLVhRk965FxlfvWIgMdLPSFzfYoIB-C6bK3MGDfLTxKozWHRE1vg3-ccrKfzXFve-nZzqqVec-H9UcPiO8nnjYHQ1qN2yyrtpfpBTuRJLySzoYbIhTUpmHJhqvcb8WEZou5kZIVOkXxeW_4400PrbYH2EhrTqPYWRz0b3HVKq9JJOurzmJnoIn2ZzqgyzCEL7TctQ6uxoqL4rw6hqu16wCJic5rJbH0kkR7N0JDfo4Osx5SZtmuEhq_yNmYgLgN5sBDT-hCVBj2D7SH4MX4s7Hg5SBXgHLe8_92m-nL1AnhSyo_IMaXT4fCLQiaR8ZjSyfUTYgASbijbX6Fc1pH62mBaTa1Y16-b3GwFPKX2XdvL43nQBWRYITPev98eVL_JwxXPaTvFFTzPXYIEKKsy5K5Wzm51SngusrVvxLUsw_AeL3lAHqKEfitikGrvBl2itkXs8FTvpxgTYjOzw5bztmtfT0VyBV8if8my4gykRkMzCkjTlLhRjzysMgtA7dj476Q7Yw3G1DRDYbdDc-WsrQRQsZTHRpIwJVp98zQoJZW1NRk53dJC9kxc7MZeghcNr5epoxi2BdjH73sL_-MPDKElw-q3IM4-W-ESnz1jlMgdVpxlgz5FQvz13DUH3Gs9Bdqd0hM8xdp7f_7vsRn_ViRX_RTXkgtMBnAM5AaSBp2dQ30oBHLFfjPC2Dhn54aAIgbl5pHc9MJ7o1NV-TSqY9kGblPECM6mK0AGGF67AyB_V7Pxq5Q1aMxDZ6UHxTIc19dIBQnECS_8st0Y4aGW9tw_rwbqAkTdVb-Sruc8pSZape7ERgkuLIbW0pBZC5TromLKBcT26VN8SyskZ4BFQbkszShTU2PrTvxDm4DSn5RVihaa82aRRZUWt7TvsuMW_AFdkou9tqN-mcFbpO6so9rB-yWj_NFBGLCdc4zdY10CvUTmRGMU1sdRSJnAlLgxKcsB86aS06ris8ntRngistJmSvgFN0UUqA3wU8H_6C2_jB2FRr0fBMbjlc2RMVEgzgxSt_Y9UWYEE1X1AqsJ4oRIq-rVZaVVZj_FhC56QdOb2gH9aJvA-dg6hJUVu9Ih8YtLHpdbyYyatTKha2OL-oYft0M5f4_9umLMXzCBf5zW_Rl9yGIxSLjAvq6TZv4BOWVCGxf7d6MClkGJmMSqWiaZZH1HYvv0pka7T68qpGPkfReCcim5G1TLWiuIM29f7ZhHExYbTsMW1PdVmP3GAm1gce5DJGREH3epZ6kFtpnmHQl9G4EaA0Dq1L0tZ0mmRJwqWkDzzNNIOTmqtD5CdRTNfjIhBRNIQRvmxTWZBi-pusNBDWU8l6mDvW1hBrjFEO3hAPjgEcpYrdjIyLohra3LXg01B_7e-dW6SHKK4elepLQMe7vUal0EHd5uuo_W8kBu__uJyi9H7lxy_NDyk4cmHZvmGprX2MsxI-5YhNBXLa3rXaFuYGMwfuWz4O4XuVZyfq5css0qc1hQUsiydhwVWMwDr4jyQErAdKo-7rk6Ga9NN8oVb8OXVeD7nXCkIG5PSCDpoXY5tqlaXa5TftrSvNqyNX4UVWXDB6HUwbv0Flpns_C_tAB3xwczT0fmkmz__Pry4eDYlO-IAu-q8L7uuWtyLYF14_4kXYVABMr8XBbuGwBAdo4IIODomsK4VncZihRokacIgFm7]--></g></svg>